<svg width="55" height="50" viewBox="0 0 55 50" fill="none" xmlns="http://www.w3.org/2000/svg">
<rect width="55" height="50" rx="10" fill="#FFB700"/>
<rect x="8" y="10" width="38" height="7" rx="3.5" fill="white"/>
<rect x="8" y="10" width="38" height="7" rx="3.5" fill="white"/>
<rect x="8" y="10" width="38" height="7" rx="3.5" fill="white"/>
<rect x="8" y="10" width="38" height="7" rx="3.5" fill="white"/>
<rect x="8" y="21" width="38" height="7" rx="3.5" fill="white"/>
<rect x="8" y="21" width="38" height="7" rx="3.5" fill="white"/>
<rect x="8" y="21" width="38" height="7" rx="3.5" fill="white"/>
<rect x="8" y="21" width="38" height="7" rx="3.5" fill="white"/>
<rect x="8" y="32" width="38" height="7" rx="3.5" fill="white"/>
<rect x="8" y="32" width="38" height="7" rx="3.5" fill="white"/>
<rect x="8" y="32" width="38" height="7" rx="3.5" fill="white"/>
<rect x="8" y="32" width="38" height="7" rx="3.5" fill="white"/>
</svg>
