<svg width="234" height="90" viewBox="0 0 234 90" fill="none" xmlns="http://www.w3.org/2000/svg">
<path d="M59.3357 36.1288C56.5135 31.9561 55.9775 31.4026 56.2243 31.7229C29.6187 37.8013 27.511 58.8435 28.3317 64.5316C28.66 66.8045 29.2426 68.7664 29.9721 70.4555C30.197 70.9775 30.4363 71.4726 30.6865 71.9425C28.3542 67.3446 28.76 62.3415 31.3366 59.0714C33.0226 56.9328 35.6382 55.5366 39.0242 55.4816C47.973 55.6265 51.5493 65.1539 46.7881 72.9831C43.8098 77.8817 39.0583 79.9735 39.0583 79.9735C43.5546 80.202 47.5435 79.2117 48.3826 78.9191C52.4171 77.5133 56.6351 75.1779 59.336 72.1963C68.9561 61.5753 66.4076 46.5865 59.3357 36.1288Z" fill="url(#paint0_linear_32_2)"/>
<path d="M55.9494 75.1183C62.4393 70.2738 62.9619 53.0024 47.6603 49.7876C34.3196 46.9852 27.7713 59.0414 29.1633 67.6303C29.5278 69.8798 30.4528 71.4664 30.2907 71.0896C28.4154 66.7349 28.9177 62.1392 31.3363 59.0711C33.0223 56.9325 35.6379 55.5363 39.0239 55.4813C47.9727 55.6262 51.549 65.1536 46.7878 72.9828C43.8095 77.8813 39.058 79.9731 39.058 79.9731C45.0931 80.28 50.7083 78.7721 55.9494 75.1183Z" fill="url(#paint1_linear_32_2)"/>
<path d="M28.3317 64.5316C27.511 58.8435 29.6191 37.8013 56.2243 31.7229C55.9772 31.4019 52.2431 26.44 50.1451 23.8324C45.1818 17.6607 40.982 12.9882 40.982 12.9882C40.982 12.9882 29.8933 25.1347 22.4581 36.1291C15.3858 46.5868 12.8376 61.5756 22.4581 72.196C25.9228 76.0203 32.5571 79.6428 39.058 79.9731C39.0599 79.9722 30.0823 76.6594 28.3317 64.5316Z" fill="url(#paint2_linear_32_2)"/>
<path d="M90.04 36V23.22L90.54 23.74H85.26V22H96.8V23.74H91.52L92 23.22V36H90.04ZM109.271 22H111.271V36H109.271V22ZM101.231 36H99.2308V22H101.231V36ZM109.451 29.76H101.031V28.02H109.451V29.76ZM125.057 36L119.977 29.1L121.597 28.1L127.337 36H125.057ZM115.637 36V22H117.597V36H115.637ZM116.997 29.84V28.08H121.537V29.84H116.997ZM121.777 29.22L119.937 28.94L124.957 22H127.097L121.777 29.22Z" fill="#C2172D"/>
<path d="M86.744 56V44.8H91.56C92.776 44.8 93.7307 45.0453 94.424 45.536C95.1173 46.0267 95.464 46.7413 95.464 47.68C95.464 48.5973 95.1333 49.3013 94.472 49.792C93.8107 50.272 92.9413 50.512 91.864 50.512L92.152 50.032C93.4 50.032 94.3547 50.2827 95.016 50.784C95.688 51.2747 96.024 51.9947 96.024 52.944C96.024 53.904 95.672 54.656 94.968 55.2C94.2747 55.7333 93.24 56 91.864 56H86.744ZM88.328 54.736H91.832C92.6853 54.736 93.3253 54.5813 93.752 54.272C94.1893 53.952 94.408 53.4667 94.408 52.816C94.408 52.1653 94.1893 51.6907 93.752 51.392C93.3253 51.0933 92.6853 50.944 91.832 50.944H88.328V54.736ZM88.328 49.728H91.448C92.2267 49.728 92.8187 49.5733 93.224 49.264C93.64 48.9547 93.848 48.5013 93.848 47.904C93.848 47.296 93.64 46.8373 93.224 46.528C92.8187 46.2187 92.2267 46.064 91.448 46.064H88.328V49.728ZM102.073 56.096C101.22 56.096 100.462 55.9093 99.8011 55.536C99.1398 55.1627 98.6171 54.6507 98.2331 54C97.8491 53.3387 97.6571 52.592 97.6571 51.76C97.6571 50.9173 97.8491 50.1707 98.2331 49.52C98.6171 48.8693 99.1398 48.3627 99.8011 48C100.462 47.6267 101.22 47.44 102.073 47.44C102.916 47.44 103.668 47.6267 104.329 48C105.001 48.3627 105.524 48.8693 105.897 49.52C106.281 50.16 106.473 50.9067 106.473 51.76C106.473 52.6027 106.281 53.3493 105.897 54C105.524 54.6507 105.001 55.1627 104.329 55.536C103.668 55.9093 102.916 56.096 102.073 56.096ZM102.073 54.752C102.617 54.752 103.102 54.6293 103.529 54.384C103.966 54.1387 104.308 53.792 104.553 53.344C104.798 52.8853 104.921 52.3573 104.921 51.76C104.921 51.152 104.798 50.6293 104.553 50.192C104.308 49.744 103.966 49.3973 103.529 49.152C103.102 48.9067 102.617 48.784 102.073 48.784C101.529 48.784 101.044 48.9067 100.617 49.152C100.19 49.3973 99.8491 49.744 99.5931 50.192C99.3371 50.6293 99.2091 51.152 99.2091 51.76C99.2091 52.3573 99.3371 52.8853 99.5931 53.344C99.8491 53.792 100.19 54.1387 100.617 54.384C101.044 54.6293 101.529 54.752 102.073 54.752ZM107.221 55.984L107.317 54.688C107.391 54.6987 107.461 54.7093 107.525 54.72C107.589 54.7307 107.647 54.736 107.701 54.736C108.042 54.736 108.309 54.6187 108.501 54.384C108.703 54.1493 108.853 53.84 108.949 53.456C109.045 53.0613 109.114 52.6187 109.157 52.128C109.199 51.6373 109.231 51.1467 109.253 50.656L109.397 47.52H115.909V56H114.373V48.416L114.741 48.864H110.389L110.741 48.4L110.629 50.752C110.597 51.4987 110.538 52.1973 110.453 52.848C110.367 53.4987 110.234 54.0693 110.053 54.56C109.882 55.0507 109.642 55.4347 109.333 55.712C109.034 55.9893 108.645 56.128 108.165 56.128C108.026 56.128 107.877 56.112 107.717 56.08C107.567 56.0587 107.402 56.0267 107.221 55.984ZM118.879 56V47.52H125.119V48.864H120.047L120.415 48.512V56H118.879ZM129.948 56.096C129.095 56.096 128.337 55.9093 127.676 55.536C127.015 55.1627 126.492 54.6507 126.108 54C125.724 53.3387 125.532 52.592 125.532 51.76C125.532 50.9173 125.724 50.1707 126.108 49.52C126.492 48.8693 127.015 48.3627 127.676 48C128.337 47.6267 129.095 47.44 129.948 47.44C130.791 47.44 131.543 47.6267 132.204 48C132.876 48.3627 133.399 48.8693 133.772 49.52C134.156 50.16 134.348 50.9067 134.348 51.76C134.348 52.6027 134.156 53.3493 133.772 54C133.399 54.6507 132.876 55.1627 132.204 55.536C131.543 55.9093 130.791 56.096 129.948 56.096ZM129.948 54.752C130.492 54.752 130.977 54.6293 131.404 54.384C131.841 54.1387 132.183 53.792 132.428 53.344C132.673 52.8853 132.796 52.3573 132.796 51.76C132.796 51.152 132.673 50.6293 132.428 50.192C132.183 49.744 131.841 49.3973 131.404 49.152C130.977 48.9067 130.492 48.784 129.948 48.784C129.404 48.784 128.919 48.9067 128.492 49.152C128.065 49.3973 127.724 49.744 127.468 50.192C127.212 50.6293 127.084 51.152 127.084 51.76C127.084 52.3573 127.212 52.8853 127.468 53.344C127.724 53.792 128.065 54.1387 128.492 54.384C128.919 54.6293 129.404 54.752 129.948 54.752ZM136.566 56V47.52H142.806V48.864H137.734L138.102 48.512V56H136.566ZM148.875 56.096C148.171 56.096 147.525 55.936 146.939 55.616C146.363 55.2853 145.899 54.8 145.547 54.16C145.205 53.52 145.035 52.72 145.035 51.76C145.035 50.8 145.2 50 145.531 49.36C145.872 48.72 146.331 48.24 146.907 47.92C147.493 47.6 148.149 47.44 148.875 47.44C149.707 47.44 150.443 47.6213 151.083 47.984C151.723 48.3467 152.229 48.8533 152.603 49.504C152.976 50.144 153.163 50.896 153.163 51.76C153.163 52.624 152.976 53.3813 152.603 54.032C152.229 54.6827 151.723 55.1893 151.083 55.552C150.443 55.9147 149.707 56.096 148.875 56.096ZM144.379 59.104V47.52H145.851V49.808L145.755 51.776L145.915 53.744V59.104H144.379ZM148.747 54.752C149.291 54.752 149.776 54.6293 150.203 54.384C150.64 54.1387 150.981 53.792 151.227 53.344C151.483 52.8853 151.611 52.3573 151.611 51.76C151.611 51.152 151.483 50.6293 151.227 50.192C150.981 49.744 150.64 49.3973 150.203 49.152C149.776 48.9067 149.291 48.784 148.747 48.784C148.213 48.784 147.728 48.9067 147.291 49.152C146.864 49.3973 146.523 49.744 146.267 50.192C146.021 50.6293 145.899 51.152 145.899 51.76C145.899 52.3573 146.021 52.8853 146.267 53.344C146.523 53.792 146.864 54.1387 147.291 54.384C147.728 54.6293 148.213 54.752 148.747 54.752ZM160.516 56V54.208L160.436 53.872V50.816C160.436 50.1653 160.244 49.664 159.86 49.312C159.487 48.9493 158.921 48.768 158.164 48.768C157.663 48.768 157.172 48.8533 156.692 49.024C156.212 49.184 155.807 49.4027 155.476 49.68L154.836 48.528C155.273 48.176 155.796 47.9093 156.404 47.728C157.023 47.536 157.668 47.44 158.34 47.44C159.503 47.44 160.399 47.7227 161.028 48.288C161.657 48.8533 161.972 49.7173 161.972 50.88V56H160.516ZM157.732 56.096C157.103 56.096 156.548 55.9893 156.068 55.776C155.599 55.5627 155.236 55.2693 154.98 54.896C154.724 54.512 154.596 54.08 154.596 53.6C154.596 53.1413 154.703 52.7253 154.916 52.352C155.14 51.9787 155.497 51.68 155.988 51.456C156.489 51.232 157.161 51.12 158.004 51.12H160.692V52.224H158.068C157.3 52.224 156.783 52.352 156.516 52.608C156.249 52.864 156.116 53.1733 156.116 53.536C156.116 53.952 156.281 54.288 156.612 54.544C156.943 54.7893 157.401 54.912 157.988 54.912C158.564 54.912 159.065 54.784 159.492 54.528C159.929 54.272 160.244 53.8987 160.436 53.408L160.74 54.464C160.537 54.9653 160.18 55.3653 159.668 55.664C159.156 55.952 158.511 56.096 157.732 56.096ZM170.53 55.28V48.864H166.85L166.77 50.496C166.749 51.0293 166.711 51.5467 166.658 52.048C166.615 52.5387 166.541 52.992 166.434 53.408C166.338 53.824 166.194 54.1653 166.002 54.432C165.81 54.6987 165.554 54.864 165.234 54.928L163.714 54.656C164.045 54.6667 164.311 54.56 164.514 54.336C164.717 54.1013 164.871 53.7813 164.978 53.376C165.095 52.9707 165.181 52.512 165.234 52C165.287 51.4773 165.33 50.9387 165.362 50.384L165.49 47.52H172.066V55.28H170.53ZM163.378 57.968V54.656H173.362V57.968H171.922V56H164.834V57.968H163.378Z" fill="#FFC500"/>
<defs>
<linearGradient id="paint0_linear_32_2" x1="34.226" y1="40.6478" x2="58.7834" y2="70.4231" gradientUnits="userSpaceOnUse">
<stop stop-color="#B31329"/>
<stop offset="0.3641" stop-color="#FA273B"/>
<stop offset="0.4476" stop-color="#FB4A2D"/>
<stop offset="0.5583" stop-color="#FD711D"/>
<stop offset="0.6678" stop-color="#FE8F10"/>
<stop offset="0.7743" stop-color="#FEA507"/>
<stop offset="0.8765" stop-color="#FFB302"/>
<stop offset="0.9697" stop-color="#FFB700"/>
</linearGradient>
<linearGradient id="paint1_linear_32_2" x1="33.8662" y1="51.1177" x2="54.893" y2="77.0498" gradientUnits="userSpaceOnUse">
<stop stop-color="#B31329"/>
<stop offset="0.3511" stop-color="#FA273B"/>
<stop offset="0.5167" stop-color="#FC5528"/>
<stop offset="0.7259" stop-color="#FD8A12"/>
<stop offset="0.8833" stop-color="#FFAB05"/>
<stop offset="0.9697" stop-color="#FFB700"/>
</linearGradient>
<linearGradient id="paint2_linear_32_2" x1="37.0938" y1="11.7928" x2="35.1588" y2="79.8376" gradientUnits="userSpaceOnUse">
<stop stop-color="#B31329"/>
<stop offset="0.3297" stop-color="#FA273B"/>
<stop offset="0.4048" stop-color="#FB442F"/>
<stop offset="0.5286" stop-color="#FC6D1E"/>
<stop offset="0.6498" stop-color="#FE8D11"/>
<stop offset="0.766" stop-color="#FEA408"/>
<stop offset="0.8751" stop-color="#FFB202"/>
<stop offset="0.9697" stop-color="#FFB700"/>
</linearGradient>
</defs>
</svg>
